<?xml version="1.0" standalone="no"?>
<!DOCTYPE svg PUBLIC "-//W3C//DTD SVG 20010904//EN"
 "http://www.w3.org/TR/2001/REC-SVG-20010904/DTD/svg10.dtd">
<svg version="1.0" xmlns="http://www.w3.org/2000/svg"
 width="1254.000000pt" height="1254.000000pt" viewBox="0 0 1254.000000 1254.000000"
 preserveAspectRatio="xMidYMid meet">

<g transform="translate(0.000000,1254.000000) scale(0.100000,-0.100000)"
fill="#000000" stroke="none">
<path d="M0 6270 l0 -6270 6270 0 6270 0 0 6270 0 6270 -6270 0 -6270 0 0
-6270z m7550 2413 c74 -24 149 -95 185 -175 25 -55 29 -78 33 -180 8 -212 -48
-436 -198 -793 -117 -278 -403 -822 -594 -1130 -149 -239 -275 -436 -363 -568
l-93 -138 10 -211 c8 -200 13 -239 25 -207 2 8 19 55 36 104 63 182 234 485
369 656 86 109 219 223 290 250 50 19 59 20 95 8 109 -37 129 -260 37 -419
-38 -68 -148 -177 -232 -232 -88 -59 -224 -125 -333 -163 -43 -15 -79 -31 -82
-34 -5 -9 131 -247 206 -361 74 -113 151 -204 199 -236 38 -25 41 -26 64 -10
14 9 43 53 66 103 121 256 206 419 245 471 161 219 302 244 583 103 352 -176
590 -189 916 -49 127 54 151 55 151 7 0 -20 -15 -32 -105 -76 -146 -73 -258
-104 -398 -110 -188 -9 -309 21 -552 138 -171 83 -250 105 -322 89 -131 -28
-245 -172 -383 -485 -66 -148 -98 -207 -138 -246 -28 -28 -36 -31 -78 -27 -34
4 -61 15 -99 43 -94 69 -235 257 -350 465 -29 52 -56 99 -60 104 -11 11 -65
-167 -80 -259 -7 -41 -9 -106 -5 -156 6 -70 4 -87 -9 -98 -28 -23 -60 -9 -73
32 -26 79 -63 438 -63 622 l-1 90 -25 -30 c-44 -52 -150 -217 -192 -300 -104
-210 -191 -439 -283 -752 -93 -319 -135 -392 -219 -380 -52 7 -84 30 -124 92
-103 155 -149 571 -127 1149 6 154 16 330 22 389 6 60 9 110 7 113 -3 2 -35
-44 -73 -102 -85 -130 -201 -244 -301 -296 -105 -55 -184 -71 -329 -65 -113 4
-129 7 -270 56 -187 64 -288 83 -435 83 -239 -1 -489 -64 -761 -193 -121 -58
-144 -58 -144 -3 0 24 8 33 50 56 160 87 477 189 661 213 238 31 399 14 627
-66 168 -59 271 -75 380 -60 228 32 389 175 539 478 l71 144 13 132 c21 206
44 418 50 462 l6 41 -173 27 c-96 15 -214 32 -264 39 -124 16 -340 16 -387 0
-34 -12 -38 -17 -38 -47 0 -54 -63 -60 -76 -8 -38 148 278 184 826 94 63 -10
118 -16 121 -12 3 3 13 67 22 143 9 75 36 232 59 350 23 117 44 235 47 262 7
55 29 78 59 60 34 -22 19 -298 -37 -699 -10 -71 -17 -132 -16 -133 2 -2 52
-11 112 -19 163 -24 485 -22 583 3 87 22 72 -9 121 259 87 478 249 962 417
1245 174 294 379 419 582 353z"/>
<path d="M7353 8602 c-129 -46 -256 -190 -373 -422 -54 -107 -150 -349 -194
-488 -47 -150 -130 -486 -160 -647 -20 -111 -21 -132 -10 -146 20 -22 17 -49
-7 -75 -18 -19 -24 -52 -44 -244 -23 -208 -51 -707 -41 -717 14 -15 427 652
645 1041 268 478 406 792 494 1121 28 106 32 135 32 255 0 120 -3 141 -23 185
-43 94 -110 142 -209 150 -42 4 -73 0 -110 -13z"/>
<path d="M6430 6743 c-88 -23 -378 -28 -554 -9 -107 11 -152 13 -157 5 -3 -6
-9 -36 -12 -67 -4 -32 -25 -158 -48 -282 -77 -417 -92 -610 -93 -1200 -1 -464
7 -583 50 -760 32 -129 95 -227 132 -204 20 12 63 138 184 538 41 135 138 377
207 516 68 137 144 256 233 366 l65 80 6 260 c8 313 25 543 53 737 3 20 2 37
-3 36 -4 -1 -33 -8 -63 -16z"/>
<path d="M7251 6198 c-53 -26 -187 -158 -262 -258 -102 -136 -251 -390 -229
-390 19 0 166 62 240 101 205 110 333 255 355 402 13 86 -11 167 -48 167 -7 0
-32 -10 -56 -22z"/>
</g>
</svg>
