<?xml version="1.0" encoding="UTF-8"?>
<svg version="1.1" xmlns="http://www.w3.org/2000/svg" width="192" height="192">
<path d="M0 0 C63.36 0 126.72 0 192 0 C192 63.36 192 126.72 192 192 C128.64 192 65.28 192 0 192 C0 128.64 0 65.28 0 0 Z " fill="#080808" transform="translate(0,0)"/>
<path d="M0 0 C2.47827773 3.08120133 4.20741141 6.22872628 5.91796875 9.7890625 C6.44970703 10.89507812 6.98144531 12.00109375 7.52929688 13.140625 C8.07650391 14.29046875 8.62371094 15.4403125 9.1875 16.625 C9.74630859 17.78257813 10.30511719 18.94015625 10.88085938 20.1328125 C15 28.74327495 15 28.74327495 15 31 C15.66 31 16.32 31 17 31 C17.40774658 29.70231689 17.40774658 29.70231689 17.82373047 28.37841797 C18.96575332 25.09836146 20.30667779 22.06919689 21.8203125 18.9453125 C22.35527344 17.83671875 22.89023438 16.728125 23.44140625 15.5859375 C23.99699219 14.44382812 24.55257812 13.30171875 25.125 12.125 C25.68832031 10.9596875 26.25164062 9.794375 26.83203125 8.59375 C28.21812761 5.72758466 29.60754522 2.86308022 31 0 C33.22419491 2.22419491 33.44527526 3.13068045 34.11328125 6.12109375 C34.30680176 6.96502686 34.50032227 7.80895996 34.69970703 8.6784668 C34.90192871 9.58894775 35.10415039 10.49942871 35.3125 11.4375 C35.75206976 13.3493815 36.19351771 15.26083202 36.63671875 17.171875 C36.86149902 18.14318359 37.0862793 19.11449219 37.31787109 20.11523438 C38.35249756 24.49073413 39.47625684 28.84075044 40.625 33.1875 C40.83253906 33.97519775 41.04007813 34.76289551 41.25390625 35.57446289 C42.54505341 40.42402403 43.92942878 45.23066518 45.51953125 49.9921875 C46.08970012 52.37484441 46.08079778 54.55905644 46 57 C44.68 57 43.36 57 42 57 C41.68546875 55.73027344 41.3709375 54.46054688 41.046875 53.15234375 C36.04774649 32.92856974 36.04774649 32.92856974 30 13 C25.71 21.91 21.42 30.82 17 40 C16.34 40 15.68 40 15 40 C10.71 31.09 6.42 22.18 2 13 C1.484375 15.0625 0.96875 17.125 0.4375 19.25 C-2.70833333 31.83333333 -5.85416667 44.41666667 -9 57 C-10.32 57 -11.64 57 -13 57 C-12.41773574 50.19305351 -11.07223719 43.94882166 -9.25 37.375 C-6.72738112 28.03341498 -4.53757692 18.65881256 -2.56152344 9.18701172 C-2.36977539 8.27322754 -2.17802734 7.35944336 -1.98046875 6.41796875 C-1.81442139 5.61125732 -1.64837402 4.8045459 -1.47729492 3.97338867 C-1 2 -1 2 0 0 Z " fill="#E9E9E9" transform="translate(55,67)"/>
<path d="M0 0 C1.32 0 2.64 0 4 0 C7.2799326 11.31415382 10.4882376 22.63900075 13.43823242 34.04418945 C14.21964105 37.06185108 15.01388035 40.04164104 16 43 C20.29 34.09 24.58 25.18 29 16 C29.66 16 30.32 16 31 16 C32.79498186 19.56083895 34.58539784 23.12395469 36.375 26.6875 C37.13683594 28.19860352 37.13683594 28.19860352 37.9140625 29.74023438 C38.40390625 30.71669922 38.89375 31.69316406 39.3984375 32.69921875 C39.84880371 33.59471436 40.29916992 34.49020996 40.76318359 35.4128418 C41.95558663 37.90709662 43.00443104 40.42167956 44 43 C47.50858801 30.77219755 50.63598846 18.4891302 53.50683594 6.09619141 C53.98607906 4.05917088 54.48747793 2.02887652 55 0 C56.32 0 57.64 0 59 0 C57.45639835 9.83758066 55.03138334 19.46600329 52.68652344 29.13476562 C51.98557158 32.06021761 51.30635176 34.9899982 50.6328125 37.921875 C50.41149658 38.87723145 50.19018066 39.83258789 49.9621582 40.81689453 C49.5368282 42.6553559 49.11591867 44.49484691 48.69995117 46.33544922 C48.5063501 47.1657666 48.31274902 47.99608398 48.11328125 48.8515625 C47.94610596 49.58197754 47.77893066 50.31239258 47.60668945 51.06494141 C47 53 47 53 45 56 C43.00119778 51.90898649 41.00750698 47.81553794 39.01855469 43.71972656 C38.34092606 42.32613748 37.66189476 40.93322955 36.98144531 39.54101562 C36.00478259 37.54213157 35.03315656 35.54086863 34.0625 33.5390625 C33.75626709 32.91504547 33.45003418 32.29102844 33.13452148 31.64810181 C31 27.22774341 31 27.22774341 31 25 C30.34 25 29.68 25 29 25 C28.72220703 25.87487061 28.44441406 26.74974121 28.15820312 27.65112305 C26.34446863 32.89543081 23.893431 37.81227012 21.5 42.8125 C21.00113281 43.87404297 20.50226563 44.93558594 19.98828125 46.02929688 C19.50746094 47.03669922 19.02664062 48.04410156 18.53125 49.08203125 C18.09361328 50.00218018 17.65597656 50.9223291 17.20507812 51.87036133 C16 54 16 54 14 55 C10.51479188 43.87414331 7.577551 32.62015666 4.75 21.3125 C4.48268066 20.24805664 4.48268066 20.24805664 4.20996094 19.16210938 C3.69423576 17.1049073 3.18229587 15.04680516 2.671875 12.98828125 C2.3737793 11.78727783 2.07568359 10.58627441 1.76855469 9.34887695 C1.05555813 6.24208734 0.48595701 3.14942141 0 0 Z " fill="#EBEBEB" transform="translate(91,67)"/>
<path d="M0 0 C2.31 0.33 4.62 0.66 7 1 C8.05669101 4.17007302 7.98570327 4.92014894 7.19555664 8.01245117 C6.89513206 9.2133564 6.89513206 9.2133564 6.58863831 10.43852234 C6.36473923 11.29798965 6.14084015 12.15745697 5.91015625 13.04296875 C5.68678085 13.9265657 5.46340546 14.81016266 5.23326111 15.72053528 C4.51737178 18.54488008 3.79008767 21.36614867 3.0625 24.1875 C2.57541914 26.10071998 2.08908164 28.01412937 1.60351562 29.92773438 C0.4109614 34.62073179 -0.79182097 39.31100189 -2 44 C-4.52627695 41.58054054 -5.96263021 39.47541186 -7.375 36.25 C-7.75398437 35.43015625 -8.13296875 34.6103125 -8.5234375 33.765625 C-9.08043729 30.53320001 -8.29891669 28.97255574 -6.89013672 26.08349609 C-5.07087207 21.82523924 -4.33525856 17.20130797 -3.375 12.6875 C-2.94753724 10.71175694 -2.51795614 8.73647062 -2.0859375 6.76171875 C-1.9007959 5.89506592 -1.7156543 5.02841309 -1.52490234 4.13549805 C-1 2 -1 2 0 0 Z " fill="#181818" transform="translate(138,67)"/>
<path d="M0 0 C0.66 0 1.32 0 2 0 C3.67643038 3.26591822 5.33943344 6.53849107 7 9.8125 C7.47695312 10.74126953 7.95390625 11.67003906 8.4453125 12.62695312 C9.12207031 13.9659668 9.12207031 13.9659668 9.8125 15.33203125 C10.23144531 16.15421143 10.65039062 16.9763916 11.08203125 17.82348633 C12 20 12 20 12 23 C11.34 23 10.68 23 10 23 C10 23.66 10 24.32 10 25 C10.66 25.33 11.32 25.66 12 26 C11.34 26.33 10.68 26.66 10 27 C10 28.65 10 30.3 10 32 C8.68 32 7.36 32 6 32 C3.03 25.07 0.06 18.14 -3 11 C-3.99 11.495 -3.99 11.495 -5 12 C-3.68938409 7.76570244 -2.05643741 3.92592596 0 0 Z " fill="#191919" transform="translate(120,92)"/>
<path d="M0 0 C2.42130331 2.42130331 2.52840504 3.80111377 3.125 7.125 C3.29257813 8.03507812 3.46015625 8.94515625 3.6328125 9.8828125 C3.81457031 10.93082031 3.81457031 10.93082031 4 12 C3.34 12 2.68 12 2 12 C1.89042969 12.556875 1.78085938 13.11375 1.66796875 13.6875 C0.55724752 19.03341031 -0.97225526 23.93063816 -3 29 C-4.32 29 -5.64 29 -7 29 C-6.40049704 25.31733897 -5.75241109 21.65456815 -5 18 C-6.98 18.99 -6.98 18.99 -9 20 C-7.55676531 15.26210835 -5.62773267 11.01141849 -3.375 6.625 C-2.88773437 5.66400391 -2.88773437 5.66400391 -2.390625 4.68359375 C-1.59742593 3.12052499 -0.79922969 1.55999378 0 0 Z " fill="#252525" transform="translate(85,79)"/>
<path d="M0 0 C1.50952148 1.22119141 1.50952148 1.22119141 3 3 C3.56308795 10.10009559 1.07161887 17.76810907 -0.5625 24.625 C-0.91344727 26.13126953 -0.91344727 26.13126953 -1.27148438 27.66796875 C-1.84207299 30.11334854 -2.41831433 32.55724069 -3 35 C-5.475 35.495 -5.475 35.495 -8 36 C-6.48113688 28.07972869 -4.70486875 20.22855151 -2.875 12.375 C-2.59785156 11.18003906 -2.32070313 9.98507813 -2.03515625 8.75390625 C-1.35811444 5.83562259 -0.67970152 2.91766511 0 0 Z " fill="#DFDFDF" transform="translate(58,88)"/>
<path d="M0 0 C1.32 0.33 2.64 0.66 4 1 C3.04625644 5.20074102 2.08578673 9.39987036 1.11914062 13.59765625 C0.79145438 15.02496947 0.46558782 16.45270175 0.14160156 17.88085938 C-0.3252588 19.93733632 -0.79871073 21.99220162 -1.2734375 24.046875 C-1.55622559 25.28276367 -1.83901367 26.51865234 -2.13037109 27.79199219 C-2.85383181 30.46079451 -3.63929781 32.61225439 -5 35 C-8.39958177 29.63223931 -6.19882051 23.87361805 -5 18 C-1.73557493 3.47114985 -1.73557493 3.47114985 0 0 Z " fill="#ECECEC" transform="translate(138,67)"/>
<path d="M0 0 C0.66 0 1.32 0 2 0 C3.5091441 3.26669046 5.00571701 6.53898816 6.5 9.8125 C6.92925781 10.74126953 7.35851562 11.67003906 7.80078125 12.62695312 C8.20683594 13.51962891 8.61289063 14.41230469 9.03125 15.33203125 C9.40830078 16.15421143 9.78535156 16.9763916 10.17382812 17.82348633 C11 20 11 20 11 23 C9.68 23 8.36 23 7 23 C5.62362255 20.11422066 4.27801751 17.21508967 2.9375 14.3125 C2.54755859 13.49587891 2.15761719 12.67925781 1.75585938 11.83789062 C-1.05682797 5.68980413 -1.05682797 5.68980413 -0.74609375 1.91796875 C-0.49988281 1.28503906 -0.25367187 0.65210937 0 0 Z " fill="#E7E7E7" transform="translate(119,101)"/>
<path d="M0 0 C2.2578125 0.015625 2.2578125 0.015625 5 1 C6.57837195 3.62861944 7.7377257 5.94142694 8.875 8.75 C9.1946875 9.46671875 9.514375 10.1834375 9.84375 10.921875 C11.55075348 14.95930933 12.51719707 17.67002186 11 22 C10.34 22 9.68 22 9 22 C7.49394598 18.71106997 5.99619468 15.41842554 4.5 12.125 C4.07074219 11.18785156 3.64148438 10.25070313 3.19921875 9.28515625 C2.79316406 8.38925781 2.38710937 7.49335937 1.96875 6.5703125 C1.59169922 5.74289551 1.21464844 4.91547852 0.82617188 4.06298828 C0 2 0 2 0 0 Z " fill="#ECECEC" transform="translate(62,67)"/>
<path d="M0 0 C1.65 0 3.3 0 5 0 C4.05023017 2.64920076 3.09072092 5.29411973 2.125 7.9375 C1.85558594 8.69224609 1.58617188 9.44699219 1.30859375 10.22460938 C-0.7734375 15.88671875 -0.7734375 15.88671875 -3 17 C-4.72805471 10.37579029 -2.84964058 6.07841789 0 0 Z " fill="#EBEBEB" transform="translate(110,82)"/>
<path d="M0 0 C2 3 2 3 1.8125 5.6875 C0.84646148 9.62596474 -0.50527047 13.23068205 -2 17 C-3.32 17 -4.64 17 -6 17 C-5.49487476 10.77012202 -2.67395877 5.54525767 0 0 Z " fill="#EFEFEF" transform="translate(84,91)"/>
<path d="M0 0 C0.99 0.33 1.98 0.66 3 1 C0.69 5.29 -1.62 9.58 -4 14 C-6.11433068 9.77133864 -6.26958336 9.23194454 -5 5 C-3.9375 2.6875 -3.9375 2.6875 -3 1 C-2.01 1.33 -1.02 1.66 0 2 C0 1.34 0 0.68 0 0 Z " fill="#151515" transform="translate(111,97)"/>
<path d="M0 0 C0.99 0.33 1.98 0.66 3 1 C2.67 2.98 2.34 4.96 2 7 C0.02 7.66 -1.96 8.32 -4 9 C-2.94124926 5.59687262 -1.99097846 2.98646769 0 0 Z " fill="#181818" transform="translate(80,90)"/>
<path d="M0 0 C0.99 0.33 1.98 0.66 3 1 C2.01 2.98 1.02 4.96 0 7 C-1.32 6.67 -2.64 6.34 -4 6 C-3.67 4.35 -3.34 2.7 -3 1 C-2.01 1.33 -1.02 1.66 0 2 C0 1.34 0 0.68 0 0 Z " fill="#242424" transform="translate(111,97)"/>
<path d="M0 0 C0.33 0 0.66 0 1 0 C1.33 2.31 1.66 4.62 2 7 C0.68 7.33 -0.64 7.66 -2 8 C-2 6.68 -2 5.36 -2 4 C-1.34 4 -0.68 4 0 4 C0 2.68 0 1.36 0 0 Z " fill="#222222" transform="translate(93,77)"/>
</svg>
